<?xml version="1.0" encoding="utf-8"?>
<!-- Generator: Adobe Illustrator 26.0.0, SVG Export Plug-In . SVG Version: 6.00 Build 0)  -->
<svg version="1.1" id="Layer_1" xmlns="http://www.w3.org/2000/svg" xmlns:xlink="http://www.w3.org/1999/xlink" x="0px" y="0px"
	 viewBox="0 0 1868.88 953.04" style="enable-background:new 0 0 1868.88 953.04;" xml:space="preserve">
<style type="text/css">
	.st0{fill:#D240A6;}
	.st1{fill:#45D1E4;}
</style>
<path class="st0" d="M607.98,411.59c0-21.77-17.59-43.97-39.38-43.97h-80.85v87.94h80.85c2.93,0,6.28-0.42,9.22-1.68
	C595,448.86,607.98,430.01,607.98,411.59z M677.11,411.59c0,59.88-48.6,103.85-108.5,103.85h-80.85v103.43h-69.12V307.74H568.6
	c7.96,0,15.5,0.84,23.04,2.09C640.24,319.46,677.11,359.66,677.11,411.59z"/>
<path class="st1" d="M474.96,416.79h78.05c2.14,0,5.26-0.24,8.01-1.42c16.07-4.73,28.37-22.05,28.37-39.57
	c0-19.35-15.56-41-36.38-41h-78.05V416.79z M553.01,423.12h-84.39v-94.67h84.39c24.45,0,42.72,24.99,42.72,47.33
	c0,20.18-14.31,40.18-32.57,45.52C559.78,422.79,555.74,423.12,553.01,423.12z M405.53,580.84h63.09v-103.9h84.39
	c59.34,0,105.82-44.43,105.82-101.15c0-48.63-34.25-89.39-83.29-99.11c-8.35-1.39-15.54-2.04-22.53-2.04H405.53V580.84z
	 M474.96,587.18h-75.77V268.3h153.82c7.35,0,14.86,0.68,23.66,2.15c52.15,10.33,88.5,53.64,88.5,105.34
	c0,60.27-49.27,107.49-112.16,107.49h-78.05V587.18z"/>
<path class="st0" d="M843.98,384.56v59.88c-24.3,0-43.99,19.68-43.99,43.97v130.23h-59.91V488.41
	C740.09,431.04,786.59,384.56,843.98,384.56z"/>
<path class="st1" d="M726.93,580.29h53.42V453.3c0-24.94,19.45-45.43,43.99-47.1v-53.46c-54.01,1.72-97.41,46.17-97.41,100.56
	V580.29z M786.84,586.78h-66.39V453.3c0-59.05,48.06-107.09,107.14-107.09h3.24v66.37h-3.24c-22.47,0-40.74,18.27-40.74,40.73
	V586.78z"/>
<path class="st0" d="M910.59,386.68h59.91v231.99h-59.91V386.68z M903.89,326.8c0-20.52,16.34-36.85,36.45-36.85
	c20.53,0,36.87,16.33,36.87,36.85c0,20.1-16.34,36.85-36.87,36.85C920.23,363.65,903.89,346.9,903.89,326.8z"/>
<path class="st1" d="M923.93,258.09c-18.31,0-33.2,15.08-33.2,33.61s14.89,33.61,33.2,33.61c18.54,0,33.63-15.08,33.63-33.61
	C957.56,272.85,942.79,258.09,923.93,258.09z M923.93,331.79c-21.88,0-39.69-17.99-39.69-40.09c0-22.1,17.8-40.09,39.69-40.09
	c22.49,0,40.11,17.61,40.11,40.09C964.04,313.8,946.05,331.79,923.93,331.79z M897.43,580.33h53.42V354.82h-53.42V580.33z
	 M957.34,586.81h-66.39V348.34h66.39V586.81z"/>
<polygon class="st0" points="1210.25,618.92 1166.26,549.82 1155.79,533.49 1145.73,549.82 1101.74,618.92 1037.23,618.92 
	1113.89,498.32 1046.45,388.6 1115.57,388.6 1149.08,443.04 1155.79,454.35 1162.91,443.04 1196.42,388.6 1265.55,388.6 
	1198.1,498.32 1274.76,618.92 "/>
<path class="st1" d="M1195.63,580.57h56.83l-74.59-117.32l65.48-106.5h-61.52l-42.53,68.72l-9.41-15.87l-32.53-52.85h-61.52
	l65.48,106.5l-74.59,117.32h56.83l43.04-67.59l12.73-20.69l13.26,20.68L1195.63,580.57z M1264.26,587.05h-72.2l-52.63-82.57
	l-7.35,11.93l-44.97,70.64h-72.2l78.74-123.87l-69.42-112.93h76.73l38.49,62.77l4.29-6.82l34.45-55.95h76.73l-69.42,112.93
	L1264.26,587.05z"/>
<path class="st0" d="M1446.96,558.91v59.88c-62.84,0-113.95-51.09-113.95-113.9V307.66h59.91v80.82h52.79v55.28h-52.79v61.14
	C1392.92,534.62,1416.8,558.91,1446.96,558.91z"/>
<path class="st1" d="M1319.85,275.8v193.99c0,59.93,47.91,108.89,107.46,110.62v-53.44c-30.08-1.69-54.04-26.69-54.04-57.17V405.4
	h52.79v-48.79h-52.79V275.8H1319.85z M1433.8,586.93h-3.24c-64.62,0-117.19-52.55-117.19-117.14V269.31h66.39v80.82h52.79v61.75
	h-52.79v57.9c0,28,22.79,50.78,50.8,50.78h3.24V586.93z"/>
</svg>
